<svg width="195" height="97" viewBox="0 0 195 97" fill="none" xmlns="http://www.w3.org/2000/svg">
<g filter="url(#filter0_d_40_8)">
<path d="M21.874 44H20.9731L19.3252 41.4731C18.6367 42.3813 17.8018 43.1064 16.8203 43.6484C15.8389 44.1758 14.7476 44.4395 13.5464 44.4395H11.8984C10.8291 44.4395 9.81836 44.2417 8.86621 43.8462C7.92871 43.436 7.1084 42.8794 6.40527 42.1763C5.70215 41.4731 5.14551 40.6528 4.73535 39.7153C4.33984 38.7778 4.14209 37.7744 4.14209 36.7051V19.7861C4.14209 18.7168 4.33984 17.7134 4.73535 16.7759C5.14551 15.8384 5.70215 15.0181 6.40527 14.3149C7.1084 13.6118 7.92871 13.0625 8.86621 12.667C9.81836 12.2568 10.8291 12.0518 11.8984 12.0518H14.1396C15.209 12.0518 16.2124 12.2568 17.1499 12.667C18.0874 13.0625 18.9077 13.6118 19.6108 14.3149C20.314 15.0181 20.8633 15.8384 21.2588 16.7759C21.6689 17.7134 21.874 18.7168 21.874 19.7861V21.0605L19.0396 21.5V19.7861C19.0396 19.083 18.9077 18.4312 18.644 17.8306C18.3804 17.2153 18.0215 16.6807 17.5674 16.2266C17.1133 15.7725 16.5786 15.4136 15.9634 15.1499C15.3628 14.8862 14.7109 14.7544 14.0078 14.7544H12.0303C11.3271 14.7544 10.668 14.8862 10.0527 15.1499C9.45215 15.4136 8.91748 15.7725 8.44873 16.2266C7.99463 16.6807 7.63574 17.2153 7.37207 17.8306C7.1084 18.4312 6.97656 19.083 6.97656 19.7861V36.7051C6.97656 37.4082 7.1084 38.0674 7.37207 38.6826C7.63574 39.2832 7.99463 39.8179 8.44873 40.2866C8.91748 40.7407 9.45215 41.0996 10.0527 41.3633C10.668 41.627 11.3271 41.7588 12.0303 41.7588H14.0078C14.7109 41.7588 15.3628 41.627 15.9634 41.3633C16.5786 41.0996 17.1133 40.7407 17.5674 40.2866C18.0215 39.8179 18.3804 39.2832 18.644 38.6826C18.9077 38.0674 19.0396 37.4082 19.0396 36.7051V30.1353H14.0078V27.4326H21.874V44ZM40.4629 36.6611H30.4873L28.4219 44H25.4775L34.7061 12.4912H36.2002L45.4727 44H42.5503L40.4629 36.6611ZM31.2563 33.9585H39.7158L35.563 19.4346L35.4751 18.27L35.3872 19.4346L31.2563 33.9585ZM68.9175 44V22.4009L68.7197 23.7412L61.4028 44H59.9087L52.5259 23.7412L52.3501 22.4009V44H49.5156V12.4912H50.9878L60.5459 38.3311L60.6338 39.4956L60.7217 38.3311L70.2578 12.4912H71.752V44H68.9175ZM78.959 44V12.4912H96.6909V15.1938H81.7935V26.9053H93.8564V29.6079H81.7935V41.2974H96.6909V44H78.959Z" fill="white"/>
<path d="M21.874 44V46H23.874V44H21.874ZM20.9731 44L19.2979 45.0925L19.8897 46H20.9731V44ZM19.3252 41.4731L21.0004 40.3806L19.4481 38.0004L17.7314 40.2649L19.3252 41.4731ZM16.8203 43.6484L17.7669 45.4102L17.7771 45.4048L17.7872 45.3992L16.8203 43.6484ZM8.86621 43.8462L8.06457 45.6785L8.08172 45.686L8.099 45.6932L8.86621 43.8462ZM4.73535 39.7153L2.89262 40.4927L2.89775 40.5049L2.90304 40.517L4.73535 39.7153ZM4.73535 16.7759L2.90304 15.9742L2.89775 15.9863L2.89262 15.9985L4.73535 16.7759ZM8.86621 12.667L9.64361 14.5097L9.65055 14.5068L9.65746 14.5038L8.86621 12.667ZM17.1499 12.667L16.3483 14.4993L16.3603 14.5046L16.3725 14.5097L17.1499 12.667ZM21.2588 16.7759L19.4161 17.5533L19.4212 17.5654L19.4265 17.5775L21.2588 16.7759ZM21.874 21.0605L22.1804 23.0369L23.874 22.7744V21.0605H21.874ZM19.0396 21.5H17.0396V23.834L19.346 23.4764L19.0396 21.5ZM18.644 17.8306L16.8058 18.6184L16.8092 18.6265L16.8128 18.6345L18.644 17.8306ZM15.9634 15.1499L15.1594 16.9812L15.1675 16.9847L15.1755 16.9882L15.9634 15.1499ZM10.0527 15.1499L9.2649 13.3116L9.25681 13.3151L9.24875 13.3186L10.0527 15.1499ZM8.44873 16.2266L7.05714 14.7901L7.04574 14.8011L7.03452 14.8123L8.44873 16.2266ZM7.37207 17.8306L9.20336 18.6345L9.20689 18.6265L9.21036 18.6184L7.37207 17.8306ZM7.37207 38.6826L5.53378 39.4705L5.53725 39.4785L5.54078 39.4866L7.37207 38.6826ZM8.44873 40.2866L7.01225 41.6782L7.03434 41.701L7.05714 41.7231L8.44873 40.2866ZM10.0527 41.3633L9.24875 43.1946L9.25681 43.1981L9.2649 43.2016L10.0527 41.3633ZM15.9634 41.3633L15.1755 39.525L15.1675 39.5285L15.1594 39.532L15.9634 41.3633ZM17.5674 40.2866L18.9816 41.7008L18.9928 41.6896L19.0039 41.6782L17.5674 40.2866ZM18.644 38.6826L20.4753 39.4866L20.4789 39.4785L20.4823 39.4705L18.644 38.6826ZM19.0396 30.1353H21.0396V28.1353H19.0396V30.1353ZM14.0078 30.1353H12.0078V32.1353H14.0078V30.1353ZM14.0078 27.4326V25.4326H12.0078V27.4326H14.0078ZM21.874 27.4326H23.874V25.4326H21.874V27.4326ZM21.874 42H20.9731V46H21.874V42ZM22.6484 42.9075L21.0004 40.3806L17.65 42.5657L19.2979 45.0925L22.6484 42.9075ZM17.7314 40.2649C17.2088 40.9543 16.5862 41.493 15.8535 41.8977L17.7872 45.3992C19.0173 44.7199 20.0646 43.8084 20.919 42.6814L17.7314 40.2649ZM15.8737 41.8867C15.2057 42.2455 14.4437 42.4395 13.5464 42.4395V46.4395C15.0514 46.4395 16.472 46.106 17.7669 45.4102L15.8737 41.8867ZM13.5464 42.4395H11.8984V46.4395H13.5464V42.4395ZM11.8984 42.4395C11.0824 42.4395 10.3333 42.2899 9.63342 41.9992L8.099 45.6932C9.30337 46.1935 10.5758 46.4395 11.8984 46.4395V42.4395ZM9.66785 42.0139C8.95205 41.7007 8.34112 41.2837 7.81949 40.7621L4.99106 43.5905C5.87568 44.4751 6.90537 45.1714 8.06457 45.6785L9.66785 42.0139ZM7.81949 40.7621C7.29786 40.2404 6.88083 39.6295 6.56767 38.9137L2.90304 40.517C3.41019 41.6762 4.10644 42.7059 4.99106 43.5905L7.81949 40.7621ZM6.57808 38.9379C6.29162 38.2589 6.14209 37.5212 6.14209 36.7051H2.14209C2.14209 38.0276 2.38807 39.2968 2.89262 40.4927L6.57808 38.9379ZM6.14209 36.7051V19.7861H2.14209V36.7051H6.14209ZM6.14209 19.7861C6.14209 18.97 6.29162 18.2323 6.57808 17.5533L2.89262 15.9985C2.38807 17.1945 2.14209 18.4636 2.14209 19.7861H6.14209ZM6.56767 17.5775C6.88083 16.8617 7.29786 16.2508 7.81949 15.7292L4.99106 12.9007C4.10644 13.7853 3.41019 14.815 2.90304 15.9742L6.56767 17.5775ZM7.81949 15.7292C8.3357 15.2129 8.9384 14.8072 9.64361 14.5097L8.08881 10.8243C6.91903 11.3178 5.88109 12.0107 4.99106 12.9007L7.81949 15.7292ZM9.65746 14.5038C10.3518 14.2047 11.0924 14.0518 11.8984 14.0518V10.0518C10.5658 10.0518 9.28494 10.3089 8.07496 10.8302L9.65746 14.5038ZM11.8984 14.0518H14.1396V10.0518H11.8984V14.0518ZM14.1396 14.0518C14.9457 14.0518 15.6749 14.2047 16.3483 14.4993L17.9515 10.8347C16.7499 10.309 15.4722 10.0518 14.1396 10.0518V14.0518ZM16.3725 14.5097C17.0777 14.8072 17.6804 15.2129 18.1966 15.7292L21.0251 12.9007C20.135 12.0107 19.0971 11.3178 17.9273 10.8243L16.3725 14.5097ZM18.1966 15.7292C18.7128 16.2454 19.1185 16.8481 19.4161 17.5533L23.1015 15.9985C22.608 14.8287 21.9151 13.7908 21.0251 12.9007L18.1966 15.7292ZM19.4265 17.5775C19.7211 18.2509 19.874 18.98 19.874 19.7861H23.874C23.874 18.4536 23.6168 17.1759 23.0911 15.9742L19.4265 17.5775ZM19.874 19.7861V21.0605H23.874V19.7861H19.874ZM21.5676 19.0842L18.7331 19.5236L19.346 23.4764L22.1804 23.0369L21.5676 19.0842ZM21.0396 21.5V19.7861H17.0396V21.5H21.0396ZM21.0396 19.7861C21.0396 18.8264 20.8581 17.8985 20.4753 17.0266L16.8128 18.6345C16.9573 18.9638 17.0396 19.3396 17.0396 19.7861H21.0396ZM20.4823 17.0427C20.1227 16.2037 19.6232 15.4539 18.9816 14.8123L16.1532 17.6408C16.4198 17.9074 16.638 18.227 16.8058 18.6184L20.4823 17.0427ZM18.9816 14.8123C18.34 14.1708 17.5903 13.6712 16.7512 13.3116L15.1755 16.9882C15.567 17.1559 15.8866 17.3742 16.1532 17.6408L18.9816 14.8123ZM16.7674 13.3186C15.8955 12.9358 14.9675 12.7544 14.0078 12.7544V16.7544C14.4544 16.7544 14.8301 16.8366 15.1594 16.9812L16.7674 13.3186ZM14.0078 12.7544H12.0303V16.7544H14.0078V12.7544ZM12.0303 12.7544C11.0702 12.7544 10.1416 12.9359 9.2649 13.3116L10.8406 16.9882C11.1944 16.8366 11.5841 16.7544 12.0303 16.7544V12.7544ZM9.24875 13.3186C8.4315 13.6774 7.6976 14.1696 7.05714 14.7901L9.84032 17.663C10.1374 17.3753 10.4728 17.1497 10.8567 16.9812L9.24875 13.3186ZM7.03452 14.8123C6.39292 15.4539 5.89337 16.2037 5.53378 17.0427L9.21036 18.6184C9.37811 18.227 9.59634 17.9074 9.86294 17.6408L7.03452 14.8123ZM5.54078 17.0266C5.158 17.8985 4.97656 18.8264 4.97656 19.7861H8.97656C8.97656 19.3396 9.05879 18.9638 9.20336 18.6345L5.54078 17.0266ZM4.97656 19.7861V36.7051H8.97656V19.7861H4.97656ZM4.97656 36.7051C4.97656 37.6651 5.15806 38.5938 5.53378 39.4705L9.21036 37.8948C9.05873 37.541 8.97656 37.1513 8.97656 36.7051H4.97656ZM5.54078 39.4866C5.89958 40.3039 6.3918 41.0378 7.01225 41.6782L9.88521 38.895C9.59746 38.598 9.37191 38.2626 9.20336 37.8786L5.54078 39.4866ZM7.05714 41.7231C7.6976 42.3435 8.4315 42.8358 9.24875 43.1946L10.8567 39.532C10.4728 39.3634 10.1374 39.1379 9.84032 38.8501L7.05714 41.7231ZM9.2649 43.2016C10.1416 43.5773 11.0702 43.7588 12.0303 43.7588V39.7588C11.5841 39.7588 11.1944 39.6766 10.8406 39.525L9.2649 43.2016ZM12.0303 43.7588H14.0078V39.7588H12.0303V43.7588ZM14.0078 43.7588C14.9675 43.7588 15.8955 43.5774 16.7674 43.1946L15.1594 39.532C14.8301 39.6766 14.4544 39.7588 14.0078 39.7588V43.7588ZM16.7512 43.2016C17.5903 42.842 18.34 42.3424 18.9816 41.7008L16.1532 38.8724C15.8866 39.139 15.567 39.3572 15.1755 39.525L16.7512 43.2016ZM19.0039 41.6782C19.6243 41.0378 20.1165 40.3039 20.4753 39.4866L16.8128 37.8786C16.6442 38.2626 16.4187 38.598 16.1309 38.895L19.0039 41.6782ZM20.4823 39.4705C20.858 38.5938 21.0396 37.6651 21.0396 36.7051H17.0396C17.0396 37.1513 16.9574 37.541 16.8058 37.8948L20.4823 39.4705ZM21.0396 36.7051V30.1353H17.0396V36.7051H21.0396ZM19.0396 28.1353H14.0078V32.1353H19.0396V28.1353ZM16.0078 30.1353V27.4326H12.0078V30.1353H16.0078ZM14.0078 29.4326H21.874V25.4326H14.0078V29.4326ZM19.874 27.4326V44H23.874V27.4326H19.874ZM40.4629 36.6611L42.3866 36.114L41.9734 34.6611H40.4629V36.6611ZM30.4873 36.6611V34.6611H28.9725L28.5621 36.1193L30.4873 36.6611ZM28.4219 44V46H29.9367L30.3471 44.5418L28.4219 44ZM25.4775 44L23.5582 43.4378L22.8077 46H25.4775V44ZM34.7061 12.4912V10.4912H33.2078L32.7867 11.9291L34.7061 12.4912ZM36.2002 12.4912L38.1188 11.9266L37.6964 10.4912H36.2002V12.4912ZM45.4727 44V46H48.146L47.3913 43.4354L45.4727 44ZM42.5503 44L40.6266 44.5472L41.0398 46H42.5503V44ZM31.2563 33.9585L29.3326 33.4114L28.6082 35.9585H31.2563V33.9585ZM39.7158 33.9585V35.9585H42.3678L41.6388 33.4087L39.7158 33.9585ZM35.563 19.4346L33.5687 19.5851L33.584 19.7884L33.64 19.9844L35.563 19.4346ZM35.4751 18.27L37.4694 18.1195H33.4808L35.4751 18.27ZM35.3872 19.4346L37.3109 19.9817L37.3663 19.787L37.3815 19.5851L35.3872 19.4346ZM40.4629 34.6611H30.4873V38.6611H40.4629V34.6611ZM28.5621 36.1193L26.4967 43.4582L30.3471 44.5418L32.4125 37.203L28.5621 36.1193ZM28.4219 42H25.4775V46H28.4219V42ZM27.3969 44.5622L36.6254 13.0534L32.7867 11.9291L23.5582 43.4378L27.3969 44.5622ZM34.7061 14.4912H36.2002V10.4912H34.7061V14.4912ZM34.2816 13.0558L43.554 44.5646L47.3913 43.4354L38.1188 11.9266L34.2816 13.0558ZM45.4727 42H42.5503V46H45.4727V42ZM44.474 43.4528L42.3866 36.114L38.5392 37.2083L40.6266 44.5472L44.474 43.4528ZM31.2563 35.9585H39.7158V31.9585H31.2563V35.9585ZM41.6388 33.4087L37.4859 18.8847L33.64 19.9844L37.7929 34.5083L41.6388 33.4087ZM37.5573 19.2841L37.4694 18.1195L33.4808 18.4205L33.5687 19.5851L37.5573 19.2841ZM33.4808 18.1195L33.3929 19.2841L37.3815 19.5851L37.4694 18.4205L33.4808 18.1195ZM33.4635 18.8874L29.3326 33.4114L33.1801 34.5056L37.3109 19.9817L33.4635 18.8874ZM68.9175 44H66.9175V46H68.9175V44ZM68.9175 22.4009H70.9175L66.9389 22.109L68.9175 22.4009ZM68.7197 23.7412L70.6008 24.4206L70.669 24.2318L70.6983 24.0331L68.7197 23.7412ZM61.4028 44V46H62.8069L63.2839 44.6794L61.4028 44ZM59.9087 44L58.0296 44.6848L58.5089 46H59.9087V44ZM52.5259 23.7412L50.5429 24.0013L50.5715 24.2194L50.6468 24.426L52.5259 23.7412ZM52.3501 22.4009L54.3331 22.1408L50.3501 22.4009H52.3501ZM52.3501 44V46H54.3501V44H52.3501ZM49.5156 44H47.5156V46H49.5156V44ZM49.5156 12.4912V10.4912H47.5156V12.4912H49.5156ZM50.9878 12.4912L52.8636 11.7974L52.3804 10.4912H50.9878V12.4912ZM60.5459 38.3311L62.5402 38.1805L62.5191 37.9006L62.4217 37.6372L60.5459 38.3311ZM60.6338 39.4956L58.6395 39.6461H62.6281L60.6338 39.4956ZM60.7217 38.3311L58.8454 37.6386L58.7484 37.9013L58.7274 38.1805L60.7217 38.3311ZM70.2578 12.4912V10.4912H68.8641L68.3815 11.7988L70.2578 12.4912ZM71.752 12.4912H73.752V10.4912H71.752V12.4912ZM71.752 44V46H73.752V44H71.752ZM70.9175 44V22.4009H66.9175V44H70.9175ZM66.9389 22.109L66.7411 23.4493L70.6983 24.0331L70.8961 22.6928L66.9389 22.109ZM66.8387 23.0618L59.5218 43.3206L63.2839 44.6794L70.6008 24.4206L66.8387 23.0618ZM61.4028 42H59.9087V46H61.4028V42ZM61.7878 43.3152L54.405 23.0564L50.6468 24.426L58.0296 44.6848L61.7878 43.3152ZM54.5089 23.4811L54.3331 22.1408L50.3671 22.6609L50.5429 24.0013L54.5089 23.4811ZM50.3501 22.4009V44H54.3501V22.4009H50.3501ZM52.3501 42H49.5156V46H52.3501V42ZM51.5156 44V12.4912H47.5156V44H51.5156ZM49.5156 14.4912H50.9878V10.4912H49.5156V14.4912ZM49.112 13.1851L58.6701 39.0249L62.4217 37.6372L52.8636 11.7974L49.112 13.1851ZM58.5516 38.4816L58.6395 39.6461L62.6281 39.3451L62.5402 38.1805L58.5516 38.4816ZM62.6281 39.6461L62.716 38.4816L58.7274 38.1805L58.6395 39.3451L62.6281 39.6461ZM62.598 39.0235L72.1341 13.1837L68.3815 11.7988L58.8454 37.6386L62.598 39.0235ZM70.2578 14.4912H71.752V10.4912H70.2578V14.4912ZM69.752 12.4912V44H73.752V12.4912H69.752ZM71.752 42H68.9175V46H71.752V42ZM78.959 44H76.959V46H78.959V44ZM78.959 12.4912V10.4912H76.959V12.4912H78.959ZM96.6909 12.4912H98.6909V10.4912H96.6909V12.4912ZM96.6909 15.1938V17.1938H98.6909V15.1938H96.6909ZM81.7935 15.1938V13.1938H79.7935V15.1938H81.7935ZM81.7935 26.9053H79.7935V28.9053H81.7935V26.9053ZM93.8564 26.9053H95.8564V24.9053H93.8564V26.9053ZM93.8564 29.6079V31.6079H95.8564V29.6079H93.8564ZM81.7935 29.6079V27.6079H79.7935V29.6079H81.7935ZM81.7935 41.2974H79.7935V43.2974H81.7935V41.2974ZM96.6909 41.2974H98.6909V39.2974H96.6909V41.2974ZM96.6909 44V46H98.6909V44H96.6909ZM80.959 44V12.4912H76.959V44H80.959ZM78.959 14.4912H96.6909V10.4912H78.959V14.4912ZM94.6909 12.4912V15.1938H98.6909V12.4912H94.6909ZM96.6909 13.1938H81.7935V17.1938H96.6909V13.1938ZM79.7935 15.1938V26.9053H83.7935V15.1938H79.7935ZM81.7935 28.9053H93.8564V24.9053H81.7935V28.9053ZM91.8564 26.9053V29.6079H95.8564V26.9053H91.8564ZM93.8564 27.6079H81.7935V31.6079H93.8564V27.6079ZM79.7935 29.6079V41.2974H83.7935V29.6079H79.7935ZM81.7935 43.2974H96.6909V39.2974H81.7935V43.2974ZM94.6909 41.2974V44H98.6909V41.2974H94.6909ZM96.6909 42H78.959V46H96.6909V42Z" fill="white"/>
</g>
<path d="M111.005 84V62.4009L110.808 63.7412L103.491 84H101.997L94.6138 63.7412L94.438 62.4009V84H91.6035V52.4912H93.0757L102.634 78.3311L102.722 79.4956L102.81 78.3311L112.346 52.4912H113.84V84H111.005ZM132.868 76.6611H122.893L120.827 84H117.883L127.111 52.4912H128.605L137.878 84H134.956L132.868 76.6611ZM123.662 73.9585H132.121L127.968 59.4346L127.88 58.27L127.792 59.4346L123.662 73.9585ZM158.159 84L145.019 61.0605L144.755 59.6982V84H141.921V52.4912H143.393L156.533 75.4526L156.818 76.793V52.4912H159.653V84H158.159ZM166.882 84V52.4912H169.716V84H166.882ZM188.767 76.6611H178.791L176.726 84H173.781L183.01 52.4912H184.504L193.776 84H190.854L188.767 76.6611ZM179.56 73.9585H188.02L183.867 59.4346L183.779 58.27L183.691 59.4346L179.56 73.9585Z" fill="white"/>
<path d="M111.005 84H109.005V86H111.005V84ZM111.005 62.4009H113.005L109.027 62.109L111.005 62.4009ZM110.808 63.7412L112.689 64.4206L112.757 64.2318L112.786 64.0331L110.808 63.7412ZM103.491 84V86H104.895L105.372 84.6794L103.491 84ZM101.997 84L100.117 84.6848L100.597 86H101.997V84ZM94.6138 63.7412L92.6308 64.0013L92.6594 64.2194L92.7347 64.426L94.6138 63.7412ZM94.438 62.4009L96.421 62.1408L92.438 62.4009H94.438ZM94.438 84V86H96.438V84H94.438ZM91.6035 84H89.6035V86H91.6035V84ZM91.6035 52.4912V50.4912H89.6035V52.4912H91.6035ZM93.0757 52.4912L94.9515 51.7974L94.4683 50.4912H93.0757V52.4912ZM102.634 78.3311L104.628 78.1805L104.607 77.9006L104.51 77.6372L102.634 78.3311ZM102.722 79.4956L100.727 79.6461H104.716L102.722 79.4956ZM102.81 78.3311L100.933 77.6386L100.836 77.9013L100.815 78.1805L102.81 78.3311ZM112.346 52.4912V50.4912H110.952L110.469 51.7988L112.346 52.4912ZM113.84 52.4912H115.84V50.4912H113.84V52.4912ZM113.84 84V86H115.84V84H113.84ZM113.005 84V62.4009H109.005V84H113.005ZM109.027 62.109L108.829 63.4493L112.786 64.0331L112.984 62.6928L109.027 62.109ZM108.927 63.0618L101.61 83.3206L105.372 84.6794L112.689 64.4206L108.927 63.0618ZM103.491 82H101.997V86H103.491V82ZM103.876 83.3152L96.4929 63.0564L92.7347 64.426L100.117 84.6848L103.876 83.3152ZM96.5968 63.4811L96.421 62.1408L92.455 62.6609L92.6308 64.0013L96.5968 63.4811ZM92.438 62.4009V84H96.438V62.4009H92.438ZM94.438 82H91.6035V86H94.438V82ZM93.6035 84V52.4912H89.6035V84H93.6035ZM91.6035 54.4912H93.0757V50.4912H91.6035V54.4912ZM91.1999 53.1851L100.758 79.0249L104.51 77.6372L94.9515 51.7974L91.1999 53.1851ZM100.639 78.4816L100.727 79.6461L104.716 79.3451L104.628 78.1805L100.639 78.4816ZM104.716 79.6461L104.804 78.4816L100.815 78.1805L100.727 79.3451L104.716 79.6461ZM104.686 79.0235L114.222 53.1837L110.469 51.7988L100.933 77.6386L104.686 79.0235ZM112.346 54.4912H113.84V50.4912H112.346V54.4912ZM111.84 52.4912V84H115.84V52.4912H111.84ZM113.84 82H111.005V86H113.84V82ZM132.868 76.6611L134.792 76.114L134.379 74.6611H132.868V76.6611ZM122.893 76.6611V74.6611H121.378L120.967 76.1193L122.893 76.6611ZM120.827 84V86H122.342L122.752 84.5418L120.827 84ZM117.883 84L115.963 83.4378L115.213 86H117.883V84ZM127.111 52.4912V50.4912H125.613L125.192 51.9291L127.111 52.4912ZM128.605 52.4912L130.524 51.9266L130.102 50.4912H128.605V52.4912ZM137.878 84V86H140.551L139.797 83.4354L137.878 84ZM134.956 84L133.032 84.5472L133.445 86H134.956V84ZM123.662 73.9585L121.738 73.4114L121.013 75.9585H123.662V73.9585ZM132.121 73.9585V75.9585H134.773L134.044 73.4087L132.121 73.9585ZM127.968 59.4346L125.974 59.5851L125.989 59.7884L126.045 59.9844L127.968 59.4346ZM127.88 58.27L129.875 58.1195H125.886L127.88 58.27ZM127.792 59.4346L129.716 59.9817L129.772 59.787L129.787 59.5851L127.792 59.4346ZM132.868 74.6611H122.893V78.6611H132.868V74.6611ZM120.967 76.1193L118.902 83.4582L122.752 84.5418L124.818 77.203L120.967 76.1193ZM120.827 82H117.883V86H120.827V82ZM119.802 84.5622L129.031 53.0534L125.192 51.9291L115.963 83.4378L119.802 84.5622ZM127.111 54.4912H128.605V50.4912H127.111V54.4912ZM126.687 53.0558L135.959 84.5646L139.797 83.4354L130.524 51.9266L126.687 53.0558ZM137.878 82H134.956V86H137.878V82ZM136.879 83.4528L134.792 76.114L130.944 77.2083L133.032 84.5472L136.879 83.4528ZM123.662 75.9585H132.121V71.9585H123.662V75.9585ZM134.044 73.4087L129.891 58.8847L126.045 59.9844L130.198 74.5083L134.044 73.4087ZM129.963 59.2841L129.875 58.1195L125.886 58.4205L125.974 59.5851L129.963 59.2841ZM125.886 58.1195L125.798 59.2841L129.787 59.5851L129.875 58.4205L125.886 58.1195ZM125.869 58.8874L121.738 73.4114L125.585 74.5056L129.716 59.9817L125.869 58.8874ZM158.159 84L156.423 84.9941L156.999 86H158.159V84ZM145.019 61.0605L143.055 61.4406L143.119 61.7665L143.284 62.0546L145.019 61.0605ZM144.755 59.6982L146.719 59.3182L142.755 59.6982H144.755ZM144.755 84V86H146.755V84H144.755ZM141.921 84H139.921V86H141.921V84ZM141.921 52.4912V50.4912H139.921V52.4912H141.921ZM143.393 52.4912L145.129 51.4979L144.553 50.4912H143.393V52.4912ZM156.533 75.4526L158.489 75.0358L158.424 74.7303L158.269 74.4593L156.533 75.4526ZM156.818 76.793L154.862 77.2098L158.818 76.793H156.818ZM156.818 52.4912V50.4912H154.818V52.4912H156.818ZM159.653 52.4912H161.653V50.4912H159.653V52.4912ZM159.653 84V86H161.653V84H159.653ZM159.894 83.0059L146.755 60.0665L143.284 62.0546L156.423 84.9941L159.894 83.0059ZM146.983 60.6805L146.719 59.3182L142.792 60.0783L143.055 61.4406L146.983 60.6805ZM142.755 59.6982V84H146.755V59.6982H142.755ZM144.755 82H141.921V86H144.755V82ZM143.921 84V52.4912H139.921V84H143.921ZM141.921 54.4912H143.393V50.4912H141.921V54.4912ZM141.657 53.4846L154.797 76.446L158.269 74.4593L145.129 51.4979L141.657 53.4846ZM154.577 75.8695L154.862 77.2098L158.774 76.3761L158.489 75.0358L154.577 75.8695ZM158.818 76.793V52.4912H154.818V76.793H158.818ZM156.818 54.4912H159.653V50.4912H156.818V54.4912ZM157.653 52.4912V84H161.653V52.4912H157.653ZM159.653 82H158.159V86H159.653V82ZM166.882 84H164.882V86H166.882V84ZM166.882 52.4912V50.4912H164.882V52.4912H166.882ZM169.716 52.4912H171.716V50.4912H169.716V52.4912ZM169.716 84V86H171.716V84H169.716ZM168.882 84V52.4912H164.882V84H168.882ZM166.882 54.4912H169.716V50.4912H166.882V54.4912ZM167.716 52.4912V84H171.716V52.4912H167.716ZM169.716 82H166.882V86H169.716V82ZM188.767 76.6611L190.69 76.114L190.277 74.6611H188.767V76.6611ZM178.791 76.6611V74.6611H177.276L176.866 76.1193L178.791 76.6611ZM176.726 84V86H178.24L178.651 84.5418L176.726 84ZM173.781 84L171.862 83.4378L171.111 86H173.781V84ZM183.01 52.4912V50.4912H181.512L181.09 51.9291L183.01 52.4912ZM184.504 52.4912L186.423 51.9266L186 50.4912H184.504V52.4912ZM193.776 84V86H196.45L195.695 83.4354L193.776 84ZM190.854 84L188.93 84.5472L189.344 86H190.854V84ZM179.56 73.9585L177.636 73.4114L176.912 75.9585H179.56V73.9585ZM188.02 73.9585V75.9585H190.672L189.942 73.4087L188.02 73.9585ZM183.867 59.4346L181.872 59.5851L181.888 59.7884L181.944 59.9844L183.867 59.4346ZM183.779 58.27L185.773 58.1195H181.784L183.779 58.27ZM183.691 59.4346L185.615 59.9817L185.67 59.787L185.685 59.5851L183.691 59.4346ZM188.767 74.6611H178.791V78.6611H188.767V74.6611ZM176.866 76.1193L174.8 83.4582L178.651 84.5418L180.716 77.203L176.866 76.1193ZM176.726 82H173.781V86H176.726V82ZM175.701 84.5622L184.929 53.0534L181.09 51.9291L171.862 83.4378L175.701 84.5622ZM183.01 54.4912H184.504V50.4912H183.01V54.4912ZM182.585 53.0558L191.858 84.5646L195.695 83.4354L186.423 51.9266L182.585 53.0558ZM193.776 82H190.854V86H193.776V82ZM192.778 83.4528L190.69 76.114L186.843 77.2083L188.93 84.5472L192.778 83.4528ZM179.56 75.9585H188.02V71.9585H179.56V75.9585ZM189.942 73.4087L185.79 58.8847L181.944 59.9844L186.097 74.5083L189.942 73.4087ZM185.861 59.2841L185.773 58.1195L181.784 58.4205L181.872 59.5851L185.861 59.2841ZM181.784 58.1195L181.697 59.2841L185.685 59.5851L185.773 58.4205L181.784 58.1195ZM181.767 58.8874L177.636 73.4114L181.484 74.5056L185.615 59.9817L181.767 58.8874Z" fill="white"/>
<defs>
<filter id="filter0_d_40_8" x="0.14209" y="12.0518" width="100.549" height="40.3877" filterUnits="userSpaceOnUse" color-interpolation-filters="sRGB">
<feFlood flood-opacity="0" result="BackgroundImageFix"/>
<feColorMatrix in="SourceAlpha" type="matrix" values="0 0 0 0 0 0 0 0 0 0 0 0 0 0 0 0 0 0 127 0" result="hardAlpha"/>
<feOffset dy="4"/>
<feGaussianBlur stdDeviation="2"/>
<feComposite in2="hardAlpha" operator="out"/>
<feColorMatrix type="matrix" values="0 0 0 0 0 0 0 0 0 0 0 0 0 0 0 0 0 0 0.25 0"/>
<feBlend mode="normal" in2="BackgroundImageFix" result="effect1_dropShadow_40_8"/>
<feBlend mode="normal" in="SourceGraphic" in2="effect1_dropShadow_40_8" result="shape"/>
</filter>
</defs>
</svg>
