<svg width="101" height="41" viewBox="0 0 101 41" fill="none" xmlns="http://www.w3.org/2000/svg">
<g filter="url(#filter0_d_40_6)">
<path d="M21.874 32H20.9731L19.3252 29.4731C18.6367 30.3813 17.8018 31.1064 16.8203 31.6484C15.8389 32.1758 14.7476 32.4395 13.5464 32.4395H11.8984C10.8291 32.4395 9.81836 32.2417 8.86621 31.8462C7.92871 31.436 7.1084 30.8794 6.40527 30.1763C5.70215 29.4731 5.14551 28.6528 4.73535 27.7153C4.33984 26.7778 4.14209 25.7744 4.14209 24.7051V7.78613C4.14209 6.7168 4.33984 5.71338 4.73535 4.77588C5.14551 3.83838 5.70215 3.01807 6.40527 2.31494C7.1084 1.61182 7.92871 1.0625 8.86621 0.666992C9.81836 0.256836 10.8291 0.0517578 11.8984 0.0517578H14.1396C15.209 0.0517578 16.2124 0.256836 17.1499 0.666992C18.0874 1.0625 18.9077 1.61182 19.6108 2.31494C20.314 3.01807 20.8633 3.83838 21.2588 4.77588C21.6689 5.71338 21.874 6.7168 21.874 7.78613V9.06055L19.0396 9.5V7.78613C19.0396 7.08301 18.9077 6.43115 18.644 5.83057C18.3804 5.21533 18.0215 4.68066 17.5674 4.22656C17.1133 3.77246 16.5786 3.41357 15.9634 3.1499C15.3628 2.88623 14.7109 2.75439 14.0078 2.75439H12.0303C11.3271 2.75439 10.668 2.88623 10.0527 3.1499C9.45215 3.41357 8.91748 3.77246 8.44873 4.22656C7.99463 4.68066 7.63574 5.21533 7.37207 5.83057C7.1084 6.43115 6.97656 7.08301 6.97656 7.78613V24.7051C6.97656 25.4082 7.1084 26.0674 7.37207 26.6826C7.63574 27.2832 7.99463 27.8179 8.44873 28.2866C8.91748 28.7407 9.45215 29.0996 10.0527 29.3633C10.668 29.627 11.3271 29.7588 12.0303 29.7588H14.0078C14.7109 29.7588 15.3628 29.627 15.9634 29.3633C16.5786 29.0996 17.1133 28.7407 17.5674 28.2866C18.0215 27.8179 18.3804 27.2832 18.644 26.6826C18.9077 26.0674 19.0396 25.4082 19.0396 24.7051V18.1353H14.0078V15.4326H21.874V32ZM40.4629 24.6611H30.4873L28.4219 32H25.4775L34.7061 0.491211H36.2002L45.4727 32H42.5503L40.4629 24.6611ZM31.2563 21.9585H39.7158L35.563 7.43457L35.4751 6.27002L35.3872 7.43457L31.2563 21.9585ZM68.9175 32V10.4009L68.7197 11.7412L61.4028 32H59.9087L52.5259 11.7412L52.3501 10.4009V32H49.5156V0.491211H50.9878L60.5459 26.3311L60.6338 27.4956L60.7217 26.3311L70.2578 0.491211H71.752V32H68.9175ZM78.959 32V0.491211H96.6909V3.19385H81.7935V14.9053H93.8564V17.6079H81.7935V29.2974H96.6909V32H78.959Z" fill="white"/>
<path d="M21.874 32V34H23.874V32H21.874ZM20.9731 32L19.2979 33.0925L19.8897 34H20.9731V32ZM19.3252 29.4731L21.0004 28.3806L19.4481 26.0004L17.7314 28.2649L19.3252 29.4731ZM16.8203 31.6484L17.7669 33.4102L17.7771 33.4048L17.7872 33.3992L16.8203 31.6484ZM8.86621 31.8462L8.06457 33.6785L8.08172 33.686L8.099 33.6932L8.86621 31.8462ZM4.73535 27.7153L2.89262 28.4927L2.89775 28.5049L2.90304 28.517L4.73535 27.7153ZM4.73535 4.77588L2.90304 3.97424L2.89775 3.98633L2.89262 3.99848L4.73535 4.77588ZM8.86621 0.666992L9.64361 2.50972L9.65055 2.50679L9.65746 2.50382L8.86621 0.666992ZM17.1499 0.666992L16.3483 2.49931L16.3603 2.50459L16.3725 2.50972L17.1499 0.666992ZM21.2588 4.77588L19.4161 5.55328L19.4212 5.56543L19.4265 5.57752L21.2588 4.77588ZM21.874 9.06055L22.1804 11.0369L23.874 10.7744V9.06055H21.874ZM19.0396 9.5H17.0396V11.834L19.346 11.4764L19.0396 9.5ZM18.644 5.83057L16.8058 6.6184L16.8092 6.62649L16.8128 6.63455L18.644 5.83057ZM15.9634 3.1499L15.1594 4.98119L15.1675 4.98473L15.1755 4.98819L15.9634 3.1499ZM10.0527 3.1499L9.2649 1.31161L9.25681 1.31508L9.24875 1.31861L10.0527 3.1499ZM8.44873 4.22656L7.05714 2.79008L7.04574 2.80113L7.03452 2.81235L8.44873 4.22656ZM7.37207 5.83057L9.20336 6.63455L9.20689 6.62649L9.21036 6.6184L7.37207 5.83057ZM7.37207 26.6826L5.53378 27.4705L5.53725 27.4785L5.54078 27.4866L7.37207 26.6826ZM8.44873 28.2866L7.01225 29.6782L7.03434 29.701L7.05714 29.7231L8.44873 28.2866ZM10.0527 29.3633L9.24875 31.1946L9.25681 31.1981L9.2649 31.2016L10.0527 29.3633ZM15.9634 29.3633L15.1755 27.525L15.1675 27.5285L15.1594 27.532L15.9634 29.3633ZM17.5674 28.2866L18.9816 29.7008L18.9928 29.6896L19.0039 29.6782L17.5674 28.2866ZM18.644 26.6826L20.4753 27.4866L20.4789 27.4785L20.4823 27.4705L18.644 26.6826ZM19.0396 18.1353H21.0396V16.1353H19.0396V18.1353ZM14.0078 18.1353H12.0078V20.1353H14.0078V18.1353ZM14.0078 15.4326V13.4326H12.0078V15.4326H14.0078ZM21.874 15.4326H23.874V13.4326H21.874V15.4326ZM21.874 30H20.9731V34H21.874V30ZM22.6484 30.9075L21.0004 28.3806L17.65 30.5657L19.2979 33.0925L22.6484 30.9075ZM17.7314 28.2649C17.2088 28.9543 16.5862 29.493 15.8535 29.8977L17.7872 33.3992C19.0173 32.7199 20.0646 31.8084 20.919 30.6814L17.7314 28.2649ZM15.8737 29.8867C15.2057 30.2455 14.4437 30.4395 13.5464 30.4395V34.4395C15.0514 34.4395 16.472 34.106 17.7669 33.4102L15.8737 29.8867ZM13.5464 30.4395H11.8984V34.4395H13.5464V30.4395ZM11.8984 30.4395C11.0824 30.4395 10.3333 30.2899 9.63342 29.9992L8.099 33.6932C9.30337 34.1935 10.5758 34.4395 11.8984 34.4395V30.4395ZM9.66785 30.0139C8.95205 29.7007 8.34112 29.2837 7.81949 28.7621L4.99106 31.5905C5.87568 32.4751 6.90537 33.1714 8.06457 33.6785L9.66785 30.0139ZM7.81949 28.7621C7.29786 28.2404 6.88083 27.6295 6.56767 26.9137L2.90304 28.517C3.41019 29.6762 4.10644 30.7059 4.99106 31.5905L7.81949 28.7621ZM6.57808 26.9379C6.29162 26.2589 6.14209 25.5212 6.14209 24.7051H2.14209C2.14209 26.0276 2.38807 27.2968 2.89262 28.4927L6.57808 26.9379ZM6.14209 24.7051V7.78613H2.14209V24.7051H6.14209ZM6.14209 7.78613C6.14209 6.96999 6.29162 6.23231 6.57808 5.55328L2.89262 3.99848C2.38807 5.19445 2.14209 6.4636 2.14209 7.78613H6.14209ZM6.56767 5.57752C6.88083 4.86172 7.29786 4.25079 7.81949 3.72915L4.99106 0.900728C4.10644 1.78535 3.41019 2.81504 2.90304 3.97424L6.56767 5.57752ZM7.81949 3.72915C8.3357 3.21294 8.9384 2.80723 9.64361 2.50972L8.08881 -1.17574C6.91903 -0.682234 5.88109 0.0106926 4.99106 0.900728L7.81949 3.72915ZM9.65746 2.50382C10.3518 2.20472 11.0924 2.05176 11.8984 2.05176V-1.94824C10.5658 -1.94824 9.28494 -1.69105 8.07496 -1.16983L9.65746 2.50382ZM11.8984 2.05176H14.1396V-1.94824H11.8984V2.05176ZM14.1396 2.05176C14.9457 2.05176 15.6749 2.20471 16.3483 2.49931L17.9515 -1.16532C16.7499 -1.69104 15.4722 -1.94824 14.1396 -1.94824V2.05176ZM16.3725 2.50972C17.0777 2.80723 17.6804 3.21294 18.1966 3.72915L21.0251 0.900728C20.135 0.0106926 19.0971 -0.682234 17.9273 -1.17574L16.3725 2.50972ZM18.1966 3.72915C18.7128 4.24537 19.1185 4.84806 19.4161 5.55328L23.1015 3.99848C22.608 2.8287 21.9151 1.79076 21.0251 0.900728L18.1966 3.72915ZM19.4265 5.57752C19.7211 6.25087 19.874 6.98004 19.874 7.78613H23.874C23.874 6.45355 23.6168 5.17589 23.0911 3.97424L19.4265 5.57752ZM19.874 7.78613V9.06055H23.874V7.78613H19.874ZM21.5676 7.08416L18.7331 7.52361L19.346 11.4764L22.1804 11.0369L21.5676 7.08416ZM21.0396 9.5V7.78613H17.0396V9.5H21.0396ZM21.0396 7.78613C21.0396 6.82643 20.8581 5.89847 20.4753 5.02659L16.8128 6.63455C16.9573 6.96383 17.0396 7.33958 17.0396 7.78613H21.0396ZM20.4823 5.04273C20.1227 4.20368 19.6232 3.45394 18.9816 2.81235L16.1532 5.64078C16.4198 5.90738 16.638 6.22698 16.8058 6.6184L20.4823 5.04273ZM18.9816 2.81235C18.34 2.17075 17.5903 1.6712 16.7512 1.31161L15.1755 4.98819C15.567 5.15595 15.8866 5.37417 16.1532 5.64078L18.9816 2.81235ZM16.7674 1.31861C15.8955 0.935834 14.9675 0.754395 14.0078 0.754395V4.75439C14.4544 4.75439 14.8301 4.83663 15.1594 4.98119L16.7674 1.31861ZM14.0078 0.754395H12.0303V4.75439H14.0078V0.754395ZM12.0303 0.754395C11.0702 0.754395 10.1416 0.935897 9.2649 1.31161L10.8406 4.98819C11.1944 4.83656 11.5841 4.75439 12.0303 4.75439V0.754395ZM9.24875 1.31861C8.4315 1.67741 7.6976 2.16963 7.05714 2.79008L9.84032 5.66304C10.1374 5.37529 10.4728 5.14974 10.8567 4.98119L9.24875 1.31861ZM7.03452 2.81235C6.39292 3.45394 5.89337 4.20368 5.53378 5.04273L9.21036 6.6184C9.37811 6.22698 9.59634 5.90738 9.86294 5.64078L7.03452 2.81235ZM5.54078 5.02659C5.158 5.89847 4.97656 6.82643 4.97656 7.78613H8.97656C8.97656 7.33958 9.05879 6.96383 9.20336 6.63455L5.54078 5.02659ZM4.97656 7.78613V24.7051H8.97656V7.78613H4.97656ZM4.97656 24.7051C4.97656 25.6651 5.15806 26.5938 5.53378 27.4705L9.21036 25.8948C9.05873 25.541 8.97656 25.1513 8.97656 24.7051H4.97656ZM5.54078 27.4866C5.89958 28.3039 6.3918 29.0378 7.01225 29.6782L9.88521 26.895C9.59746 26.598 9.37191 26.2626 9.20336 25.8786L5.54078 27.4866ZM7.05714 29.7231C7.6976 30.3435 8.4315 30.8358 9.24875 31.1946L10.8567 27.532C10.4728 27.3634 10.1374 27.1379 9.84032 26.8501L7.05714 29.7231ZM9.2649 31.2016C10.1416 31.5773 11.0702 31.7588 12.0303 31.7588V27.7588C11.5841 27.7588 11.1944 27.6766 10.8406 27.525L9.2649 31.2016ZM12.0303 31.7588H14.0078V27.7588H12.0303V31.7588ZM14.0078 31.7588C14.9675 31.7588 15.8955 31.5774 16.7674 31.1946L15.1594 27.532C14.8301 27.6766 14.4544 27.7588 14.0078 27.7588V31.7588ZM16.7512 31.2016C17.5903 30.842 18.34 30.3424 18.9816 29.7008L16.1532 26.8724C15.8866 27.139 15.567 27.3572 15.1755 27.525L16.7512 31.2016ZM19.0039 29.6782C19.6243 29.0378 20.1165 28.3039 20.4753 27.4866L16.8128 25.8786C16.6442 26.2626 16.4187 26.598 16.1309 26.895L19.0039 29.6782ZM20.4823 27.4705C20.858 26.5938 21.0396 25.6651 21.0396 24.7051H17.0396C17.0396 25.1513 16.9574 25.541 16.8058 25.8948L20.4823 27.4705ZM21.0396 24.7051V18.1353H17.0396V24.7051H21.0396ZM19.0396 16.1353H14.0078V20.1353H19.0396V16.1353ZM16.0078 18.1353V15.4326H12.0078V18.1353H16.0078ZM14.0078 17.4326H21.874V13.4326H14.0078V17.4326ZM19.874 15.4326V32H23.874V15.4326H19.874ZM40.4629 24.6611L42.3866 24.114L41.9734 22.6611H40.4629V24.6611ZM30.4873 24.6611V22.6611H28.9725L28.5621 24.1193L30.4873 24.6611ZM28.4219 32V34H29.9367L30.3471 32.5418L28.4219 32ZM25.4775 32L23.5582 31.4378L22.8077 34H25.4775V32ZM34.7061 0.491211V-1.50879H33.2078L32.7867 -0.0709476L34.7061 0.491211ZM36.2002 0.491211L38.1188 -0.073411L37.6964 -1.50879H36.2002V0.491211ZM45.4727 32V34H48.146L47.3913 31.4354L45.4727 32ZM42.5503 32L40.6266 32.5472L41.0398 34H42.5503V32ZM31.2563 21.9585L29.3326 21.4114L28.6082 23.9585H31.2563V21.9585ZM39.7158 21.9585V23.9585H42.3678L41.6388 21.4087L39.7158 21.9585ZM35.563 7.43457L33.5687 7.58508L33.584 7.78838L33.64 7.9844L35.563 7.43457ZM35.4751 6.27002L37.4694 6.1195H33.4808L35.4751 6.27002ZM35.3872 7.43457L37.3109 7.98171L37.3663 7.78697L37.3815 7.58508L35.3872 7.43457ZM40.4629 22.6611H30.4873V26.6611H40.4629V22.6611ZM28.5621 24.1193L26.4967 31.4582L30.3471 32.5418L32.4125 25.203L28.5621 24.1193ZM28.4219 30H25.4775V34H28.4219V30ZM27.3969 32.5622L36.6254 1.05337L32.7867 -0.0709476L23.5582 31.4378L27.3969 32.5622ZM34.7061 2.49121H36.2002V-1.50879H34.7061V2.49121ZM34.2816 1.05583L43.554 32.5646L47.3913 31.4354L38.1188 -0.073411L34.2816 1.05583ZM45.4727 30H42.5503V34H45.4727V30ZM44.474 31.4528L42.3866 24.114L38.5392 25.2083L40.6266 32.5472L44.474 31.4528ZM31.2563 23.9585H39.7158V19.9585H31.2563V23.9585ZM41.6388 21.4087L37.4859 6.88474L33.64 7.9844L37.7929 22.5083L41.6388 21.4087ZM37.5573 7.28406L37.4694 6.1195L33.4808 6.42053L33.5687 7.58508L37.5573 7.28406ZM33.4808 6.1195L33.3929 7.28406L37.3815 7.58508L37.4694 6.42053L33.4808 6.1195ZM33.4635 6.88743L29.3326 21.4114L33.1801 22.5056L37.3109 7.98171L33.4635 6.88743ZM68.9175 32H66.9175V34H68.9175V32ZM68.9175 10.4009H70.9175L66.9389 10.109L68.9175 10.4009ZM68.7197 11.7412L70.6008 12.4206L70.669 12.2318L70.6983 12.0331L68.7197 11.7412ZM61.4028 32V34H62.8069L63.2839 32.6794L61.4028 32ZM59.9087 32L58.0296 32.6848L58.5089 34H59.9087V32ZM52.5259 11.7412L50.5429 12.0013L50.5715 12.2194L50.6468 12.426L52.5259 11.7412ZM52.3501 10.4009L54.3331 10.1408L50.3501 10.4009H52.3501ZM52.3501 32V34H54.3501V32H52.3501ZM49.5156 32H47.5156V34H49.5156V32ZM49.5156 0.491211V-1.50879H47.5156V0.491211H49.5156ZM50.9878 0.491211L52.8636 -0.202639L52.3804 -1.50879H50.9878V0.491211ZM60.5459 26.3311L62.5402 26.1805L62.5191 25.9006L62.4217 25.6372L60.5459 26.3311ZM60.6338 27.4956L58.6395 27.6461H62.6281L60.6338 27.4956ZM60.7217 26.3311L58.8454 25.6386L58.7484 25.9013L58.7274 26.1805L60.7217 26.3311ZM70.2578 0.491211V-1.50879H68.8641L68.3815 -0.201235L70.2578 0.491211ZM71.752 0.491211H73.752V-1.50879H71.752V0.491211ZM71.752 32V34H73.752V32H71.752ZM70.9175 32V10.4009H66.9175V32H70.9175ZM66.9389 10.109L66.7411 11.4493L70.6983 12.0331L70.8961 10.6928L66.9389 10.109ZM66.8387 11.0618L59.5218 31.3206L63.2839 32.6794L70.6008 12.4206L66.8387 11.0618ZM61.4028 30H59.9087V34H61.4028V30ZM61.7878 31.3152L54.405 11.0564L50.6468 12.426L58.0296 32.6848L61.7878 31.3152ZM54.5089 11.4811L54.3331 10.1408L50.3671 10.6609L50.5429 12.0013L54.5089 11.4811ZM50.3501 10.4009V32H54.3501V10.4009H50.3501ZM52.3501 30H49.5156V34H52.3501V30ZM51.5156 32V0.491211H47.5156V32H51.5156ZM49.5156 2.49121H50.9878V-1.50879H49.5156V2.49121ZM49.112 1.18506L58.6701 27.0249L62.4217 25.6372L52.8636 -0.202639L49.112 1.18506ZM58.5516 26.4816L58.6395 27.6461L62.6281 27.3451L62.5402 26.1805L58.5516 26.4816ZM62.6281 27.6461L62.716 26.4816L58.7274 26.1805L58.6395 27.3451L62.6281 27.6461ZM62.598 27.0235L72.1341 1.18366L68.3815 -0.201235L58.8454 25.6386L62.598 27.0235ZM70.2578 2.49121H71.752V-1.50879H70.2578V2.49121ZM69.752 0.491211V32H73.752V0.491211H69.752ZM71.752 30H68.9175V34H71.752V30ZM78.959 32H76.959V34H78.959V32ZM78.959 0.491211V-1.50879H76.959V0.491211H78.959ZM96.6909 0.491211H98.6909V-1.50879H96.6909V0.491211ZM96.6909 3.19385V5.19385H98.6909V3.19385H96.6909ZM81.7935 3.19385V1.19385H79.7935V3.19385H81.7935ZM81.7935 14.9053H79.7935V16.9053H81.7935V14.9053ZM93.8564 14.9053H95.8564V12.9053H93.8564V14.9053ZM93.8564 17.6079V19.6079H95.8564V17.6079H93.8564ZM81.7935 17.6079V15.6079H79.7935V17.6079H81.7935ZM81.7935 29.2974H79.7935V31.2974H81.7935V29.2974ZM96.6909 29.2974H98.6909V27.2974H96.6909V29.2974ZM96.6909 32V34H98.6909V32H96.6909ZM80.959 32V0.491211H76.959V32H80.959ZM78.959 2.49121H96.6909V-1.50879H78.959V2.49121ZM94.6909 0.491211V3.19385H98.6909V0.491211H94.6909ZM96.6909 1.19385H81.7935V5.19385H96.6909V1.19385ZM79.7935 3.19385V14.9053H83.7935V3.19385H79.7935ZM81.7935 16.9053H93.8564V12.9053H81.7935V16.9053ZM91.8564 14.9053V17.6079H95.8564V14.9053H91.8564ZM93.8564 15.6079H81.7935V19.6079H93.8564V15.6079ZM79.7935 17.6079V29.2974H83.7935V17.6079H79.7935ZM81.7935 31.2974H96.6909V27.2974H81.7935V31.2974ZM94.6909 29.2974V32H98.6909V29.2974H94.6909ZM96.6909 30H78.959V34H96.6909V30Z" fill="white"/>
</g>
<defs>
<filter id="filter0_d_40_6" x="0.14209" y="0.0517578" width="100.549" height="40.3877" filterUnits="userSpaceOnUse" color-interpolation-filters="sRGB">
<feFlood flood-opacity="0" result="BackgroundImageFix"/>
<feColorMatrix in="SourceAlpha" type="matrix" values="0 0 0 0 0 0 0 0 0 0 0 0 0 0 0 0 0 0 127 0" result="hardAlpha"/>
<feOffset dy="4"/>
<feGaussianBlur stdDeviation="2"/>
<feComposite in2="hardAlpha" operator="out"/>
<feColorMatrix type="matrix" values="0 0 0 0 0 0 0 0 0 0 0 0 0 0 0 0 0 0 0.25 0"/>
<feBlend mode="normal" in2="BackgroundImageFix" result="effect1_dropShadow_40_6"/>
<feBlend mode="normal" in="SourceGraphic" in2="effect1_dropShadow_40_6" result="shape"/>
</filter>
</defs>
</svg>
