<svg width="103" height="32" viewBox="0 0 103 32" fill="none" xmlns="http://www.w3.org/2000/svg">
<path d="M20.0054 32V10.4009L19.8076 11.7412L12.4907 32H10.9966L3.61377 11.7412L3.43799 10.4009V32H0.603516V0.491211H2.07568L11.6338 26.3311L11.7217 27.4956L11.8096 26.3311L21.3457 0.491211H22.8398V32H20.0054ZM41.8682 24.6611H31.8926L29.8271 32H26.8828L36.1113 0.491211H37.6055L46.8779 32H43.9556L41.8682 24.6611ZM32.6616 21.9585H41.1211L36.9683 7.43457L36.8804 6.27002L36.7925 7.43457L32.6616 21.9585ZM67.1587 32L54.019 9.06055L53.7554 7.69824V32H50.9209V0.491211H52.3931L65.5327 23.4526L65.8184 24.793V0.491211H68.6528V32H67.1587ZM75.8818 32V0.491211H78.7163V32H75.8818ZM97.7666 24.6611H87.791L85.7256 32H82.7812L92.0098 0.491211H93.5039L102.776 32H99.854L97.7666 24.6611ZM88.5601 21.9585H97.0195L92.8667 7.43457L92.7788 6.27002L92.6909 7.43457L88.5601 21.9585Z" fill="white"/>
<path d="M20.0054 32H18.0054V34H20.0054V32ZM20.0054 10.4009H22.0054L18.0268 10.109L20.0054 10.4009ZM19.8076 11.7412L21.6887 12.4206L21.7569 12.2318L21.7862 12.0331L19.8076 11.7412ZM12.4907 32V34H13.8948L14.3718 32.6794L12.4907 32ZM10.9966 32L9.11747 32.6848L9.59677 34H10.9966V32ZM3.61377 11.7412L1.63075 12.0013L1.65935 12.2194L1.73466 12.426L3.61377 11.7412ZM3.43799 10.4009L5.42101 10.1408L1.43799 10.4009H3.43799ZM3.43799 32V34H5.43799V32H3.43799ZM0.603516 32H-1.39648V34H0.603516V32ZM0.603516 0.491211V-1.50879H-1.39648V0.491211H0.603516ZM2.07568 0.491211L3.95147 -0.202639L3.46833 -1.50879H2.07568V0.491211ZM11.6338 26.3311L13.6281 26.1805L13.607 25.9006L13.5096 25.6372L11.6338 26.3311ZM11.7217 27.4956L9.72735 27.6461H13.716L11.7217 27.4956ZM11.8096 26.3311L9.93327 25.6386L9.83632 25.9013L9.81524 26.1805L11.8096 26.3311ZM21.3457 0.491211V-1.50879H19.9519L19.4694 -0.201235L21.3457 0.491211ZM22.8398 0.491211H24.8398V-1.50879H22.8398V0.491211ZM22.8398 32V34H24.8398V32H22.8398ZM22.0054 32V10.4009H18.0054V32H22.0054ZM18.0268 10.109L17.829 11.4493L21.7862 12.0331L21.984 10.6928L18.0268 10.109ZM17.9265 11.0618L10.6097 31.3206L14.3718 32.6794L21.6887 12.4206L17.9265 11.0618ZM12.4907 30H10.9966V34H12.4907V30ZM12.8757 31.3152L5.49288 11.0564L1.73466 12.426L9.11747 32.6848L12.8757 31.3152ZM5.59679 11.4811L5.42101 10.1408L1.45497 10.6609L1.63075 12.0013L5.59679 11.4811ZM1.43799 10.4009V32H5.43799V10.4009H1.43799ZM3.43799 30H0.603516V34H3.43799V30ZM2.60352 32V0.491211H-1.39648V32H2.60352ZM0.603516 2.49121H2.07568V-1.50879H0.603516V2.49121ZM0.199898 1.18506L9.758 27.0249L13.5096 25.6372L3.95147 -0.202639L0.199898 1.18506ZM9.63946 26.4816L9.72735 27.6461L13.716 27.3451L13.6281 26.1805L9.63946 26.4816ZM13.716 27.6461L13.8039 26.4816L9.81524 26.1805L9.72735 27.3451L13.716 27.6461ZM13.6859 27.0235L23.222 1.18366L19.4694 -0.201235L9.93327 25.6386L13.6859 27.0235ZM21.3457 2.49121H22.8398V-1.50879H21.3457V2.49121ZM20.8398 0.491211V32H24.8398V0.491211H20.8398ZM22.8398 30H20.0054V34H22.8398V30ZM41.8682 24.6611L43.7919 24.114L43.3786 22.6611H41.8682V24.6611ZM31.8926 24.6611V22.6611H30.3778L29.9674 24.1193L31.8926 24.6611ZM29.8271 32V34H31.342L31.7524 32.5418L29.8271 32ZM26.8828 32L24.9634 31.4378L24.213 34H26.8828V32ZM36.1113 0.491211V-1.50879H34.6131L34.192 -0.0709476L36.1113 0.491211ZM37.6055 0.491211L39.5241 -0.073411L39.1017 -1.50879H37.6055V0.491211ZM46.8779 32V34H49.5513L48.7966 31.4354L46.8779 32ZM43.9556 32L42.0319 32.5472L42.4451 34H43.9556V32ZM32.6616 21.9585L30.7379 21.4114L30.0135 23.9585H32.6616V21.9585ZM41.1211 21.9585V23.9585H43.7731L43.044 21.4087L41.1211 21.9585ZM36.9683 7.43457L34.9739 7.58508L34.9893 7.78838L35.0453 7.9844L36.9683 7.43457ZM36.8804 6.27002L38.8747 6.1195H34.886L36.8804 6.27002ZM36.7925 7.43457L38.7162 7.98171L38.7716 7.78697L38.7868 7.58508L36.7925 7.43457ZM41.8682 22.6611H31.8926V26.6611H41.8682V22.6611ZM29.9674 24.1193L27.9019 31.4582L31.7524 32.5418L33.8178 25.203L29.9674 24.1193ZM29.8271 30H26.8828V34H29.8271V30ZM28.8022 32.5622L38.0307 1.05337L34.192 -0.0709476L24.9634 31.4378L28.8022 32.5622ZM36.1113 2.49121H37.6055V-1.50879H36.1113V2.49121ZM35.6868 1.05583L44.9593 32.5646L48.7966 31.4354L39.5241 -0.073411L35.6868 1.05583ZM46.8779 30H43.9556V34H46.8779V30ZM45.8793 31.4528L43.7919 24.114L39.9445 25.2083L42.0319 32.5472L45.8793 31.4528ZM32.6616 23.9585H41.1211V19.9585H32.6616V23.9585ZM43.044 21.4087L38.8912 6.88474L35.0453 7.9844L39.1982 22.5083L43.044 21.4087ZM38.9626 7.28406L38.8747 6.1195L34.886 6.42053L34.9739 7.58508L38.9626 7.28406ZM34.886 6.1195L34.7982 7.28406L38.7868 7.58508L38.8747 6.42053L34.886 6.1195ZM34.8688 6.88743L30.7379 21.4114L34.5853 22.5056L38.7162 7.98171L34.8688 6.88743ZM67.1587 32L65.4232 32.9941L65.9994 34H67.1587V32ZM54.019 9.06055L52.0555 9.44059L52.1186 9.76653L52.2836 10.0546L54.019 9.06055ZM53.7554 7.69824L55.7189 7.3182L51.7554 7.69824H53.7554ZM53.7554 32V34H55.7554V32H53.7554ZM50.9209 32H48.9209V34H50.9209V32ZM50.9209 0.491211V-1.50879H48.9209V0.491211H50.9209ZM52.3931 0.491211L54.1289 -0.50214L53.5529 -1.50879H52.3931V0.491211ZM65.5327 23.4526L67.4888 23.0358L67.4237 22.7303L67.2686 22.4593L65.5327 23.4526ZM65.8184 24.793L63.8623 25.2098L67.8184 24.793H65.8184ZM65.8184 0.491211V-1.50879H63.8184V0.491211H65.8184ZM68.6528 0.491211H70.6528V-1.50879H68.6528V0.491211ZM68.6528 32V34H70.6528V32H68.6528ZM68.8942 31.0059L55.7545 8.06648L52.2836 10.0546L65.4232 32.9941L68.8942 31.0059ZM55.9826 8.6805L55.7189 7.3182L51.7918 8.07829L52.0555 9.44059L55.9826 8.6805ZM51.7554 7.69824V32H55.7554V7.69824H51.7554ZM53.7554 30H50.9209V34H53.7554V30ZM52.9209 32V0.491211H48.9209V32H52.9209ZM50.9209 2.49121H52.3931V-1.50879H50.9209V2.49121ZM50.6572 1.48456L63.7968 24.446L67.2686 22.4593L54.1289 -0.50214L50.6572 1.48456ZM63.5766 23.8695L63.8623 25.2098L67.7744 24.3761L67.4888 23.0358L63.5766 23.8695ZM67.8184 24.793V0.491211H63.8184V24.793H67.8184ZM65.8184 2.49121H68.6528V-1.50879H65.8184V2.49121ZM66.6528 0.491211V32H70.6528V0.491211H66.6528ZM68.6528 30H67.1587V34H68.6528V30ZM75.8818 32H73.8818V34H75.8818V32ZM75.8818 0.491211V-1.50879H73.8818V0.491211H75.8818ZM78.7163 0.491211H80.7163V-1.50879H78.7163V0.491211ZM78.7163 32V34H80.7163V32H78.7163ZM77.8818 32V0.491211H73.8818V32H77.8818ZM75.8818 2.49121H78.7163V-1.50879H75.8818V2.49121ZM76.7163 0.491211V32H80.7163V0.491211H76.7163ZM78.7163 30H75.8818V34H78.7163V30ZM97.7666 24.6611L99.6903 24.114L99.2771 22.6611H97.7666V24.6611ZM87.791 24.6611V22.6611H86.2762L85.8658 24.1193L87.791 24.6611ZM85.7256 32V34H87.2404L87.6508 32.5418L85.7256 32ZM82.7812 32L80.8619 31.4378L80.1115 34H82.7812V32ZM92.0098 0.491211V-1.50879H90.5115L90.0904 -0.0709476L92.0098 0.491211ZM93.5039 0.491211L95.4226 -0.073411L95.0001 -1.50879H93.5039V0.491211ZM102.776 32V34H105.45L104.695 31.4354L102.776 32ZM99.854 32L97.9303 32.5472L98.3435 34H99.854V32ZM88.5601 21.9585L86.6364 21.4114L85.9119 23.9585H88.5601V21.9585ZM97.0195 21.9585V23.9585H99.6715L98.9425 21.4087L97.0195 21.9585ZM92.8667 7.43457L90.8724 7.58508L90.8877 7.78838L90.9438 7.9844L92.8667 7.43457ZM92.7788 6.27002L94.7731 6.1195H90.7845L92.7788 6.27002ZM92.6909 7.43457L94.6146 7.98171L94.67 7.78697L94.6852 7.58508L92.6909 7.43457ZM97.7666 22.6611H87.791V26.6611H97.7666V22.6611ZM85.8658 24.1193L83.8004 31.4582L87.6508 32.5418L89.7162 25.203L85.8658 24.1193ZM85.7256 30H82.7812V34H85.7256V30ZM84.7006 32.5622L93.9291 1.05337L90.0904 -0.0709476L80.8619 31.4378L84.7006 32.5622ZM92.0098 2.49121H93.5039V-1.50879H92.0098V2.49121ZM91.5853 1.05583L100.858 32.5646L104.695 31.4354L95.4226 -0.073411L91.5853 1.05583ZM102.776 30H99.854V34H102.776V30ZM101.778 31.4528L99.6903 24.114L95.8429 25.2083L97.9303 32.5472L101.778 31.4528ZM88.5601 23.9585H97.0195V19.9585H88.5601V23.9585ZM98.9425 21.4087L94.7896 6.88474L90.9438 7.9844L95.0966 22.5083L98.9425 21.4087ZM94.861 7.28406L94.7731 6.1195L90.7845 6.42053L90.8724 7.58508L94.861 7.28406ZM90.7845 6.1195L90.6966 7.28406L94.6852 7.58508L94.7731 6.42053L90.7845 6.1195ZM90.7672 6.88743L86.6364 21.4114L90.4838 22.5056L94.6146 7.98171L90.7672 6.88743Z" fill="white"/>
</svg>
